<?xml version="1.0" encoding="utf-8" standalone="no"?>
<!DOCTYPE svg PUBLIC "-//W3C//DTD SVG 1.1//EN"
  "http://www.w3.org/Graphics/SVG/1.1/DTD/svg11.dtd">
<svg xmlns:xlink="http://www.w3.org/1999/xlink" width="460.8pt" height="345.6pt" viewBox="0 0 460.8 345.6" xmlns="http://www.w3.org/2000/svg" version="1.1">
 <metadata>
  <rdf:RDF xmlns:dc="http://purl.org/dc/elements/1.1/" xmlns:cc="http://creativecommons.org/ns#" xmlns:rdf="http://www.w3.org/1999/02/22-rdf-syntax-ns#">
   <cc:Work>
    <dc:type rdf:resource="http://purl.org/dc/dcmitype/StillImage"/>
    <dc:date>2022-11-01T21:50:24.989268</dc:date>
    <dc:format>image/svg+xml</dc:format>
    <dc:creator>
     <cc:Agent>
      <dc:title>Matplotlib v3.6.1, https://matplotlib.org/</dc:title>
     </cc:Agent>
    </dc:creator>
   </cc:Work>
  </rdf:RDF>
 </metadata>
 <defs>
  <style type="text/css">*{stroke-linejoin: round; stroke-linecap: butt}</style>
 </defs>
 <g id="figure_1">
  <g id="patch_1">
   <path d="M 0 345.6 
L 460.8 345.6 
L 460.8 0 
L 0 0 
z
" style="fill: #ffffff"/>
  </g>
  <g id="axes_1">
   <g id="patch_2">
    <path d="M 57.6 307.584 
L 414.72 307.584 
L 414.72 41.472 
L 57.6 41.472 
z
" style="fill: #ffffff"/>
   </g>
   <g id="PathCollection_1">
    <defs>
     <path id="m0e6d0145f3" d="M 0 3 
C 0.795609 3 1.55874 2.683901 2.12132 2.12132 
C 2.683901 1.55874 3 0.795609 3 0 
C 3 -0.795609 2.683901 -1.55874 2.12132 -2.12132 
C 1.55874 -2.683901 0.795609 -3 0 -3 
C -0.795609 -3 -1.55874 -2.683901 -2.12132 -2.12132 
C -2.683901 -1.55874 -3 -0.795609 -3 0 
C -3 0.795609 -2.683901 1.55874 -2.12132 2.12132 
C -1.55874 2.683901 -0.795609 3 0 3 
z
" style="stroke: #000000"/>
    </defs>
    <g clip-path="url(#p0ede364c79)">
     <use xlink:href="#m0e6d0145f3" x="73.832727" y="295.488" style="stroke: #000000"/>
     <use xlink:href="#m0e6d0145f3" x="73.832727" y="295.488" style="stroke: #000000"/>
     <use xlink:href="#m0e6d0145f3" x="73.832727" y="295.488" style="stroke: #000000"/>
     <use xlink:href="#m0e6d0145f3" x="73.832727" y="295.488" style="stroke: #000000"/>
     <use xlink:href="#m0e6d0145f3" x="73.832727" y="295.488" style="stroke: #000000"/>
     <use xlink:href="#m0e6d0145f3" x="73.832727" y="294.048" style="stroke: #000000"/>
     <use xlink:href="#m0e6d0145f3" x="73.832727" y="294.048" style="stroke: #000000"/>
     <use xlink:href="#m0e6d0145f3" x="73.832727" y="292.608" style="stroke: #000000"/>
     <use xlink:href="#m0e6d0145f3" x="73.832727" y="292.608" style="stroke: #000000"/>
     <use xlink:href="#m0e6d0145f3" x="73.832727" y="292.608" style="stroke: #000000"/>
     <use xlink:href="#m0e6d0145f3" x="73.832727" y="292.608" style="stroke: #000000"/>
     <use xlink:href="#m0e6d0145f3" x="73.832727" y="288.288" style="stroke: #000000"/>
     <use xlink:href="#m0e6d0145f3" x="73.832727" y="288.288" style="stroke: #000000"/>
     <use xlink:href="#m0e6d0145f3" x="73.832727" y="288.288" style="stroke: #000000"/>
     <use xlink:href="#m0e6d0145f3" x="73.832727" y="288.288" style="stroke: #000000"/>
     <use xlink:href="#m0e6d0145f3" x="73.832727" y="285.408" style="stroke: #000000"/>
     <use xlink:href="#m0e6d0145f3" x="73.832727" y="285.408" style="stroke: #000000"/>
     <use xlink:href="#m0e6d0145f3" x="73.832727" y="283.968" style="stroke: #000000"/>
     <use xlink:href="#m0e6d0145f3" x="73.832727" y="283.968" style="stroke: #000000"/>
     <use xlink:href="#m0e6d0145f3" x="73.832727" y="282.528" style="stroke: #000000"/>
     <use xlink:href="#m0e6d0145f3" x="73.832727" y="282.528" style="stroke: #000000"/>
     <use xlink:href="#m0e6d0145f3" x="73.832727" y="281.088" style="stroke: #000000"/>
     <use xlink:href="#m0e6d0145f3" x="73.832727" y="281.088" style="stroke: #000000"/>
     <use xlink:href="#m0e6d0145f3" x="73.832727" y="279.648" style="stroke: #000000"/>
     <use xlink:href="#m0e6d0145f3" x="73.832727" y="279.648" style="stroke: #000000"/>
     <use xlink:href="#m0e6d0145f3" x="73.832727" y="278.208" style="stroke: #000000"/>
     <use xlink:href="#m0e6d0145f3" x="73.832727" y="278.208" style="stroke: #000000"/>
     <use xlink:href="#m0e6d0145f3" x="73.832727" y="276.768" style="stroke: #000000"/>
     <use xlink:href="#m0e6d0145f3" x="73.832727" y="276.768" style="stroke: #000000"/>
     <use xlink:href="#m0e6d0145f3" x="73.832727" y="275.328" style="stroke: #000000"/>
     <use xlink:href="#m0e6d0145f3" x="73.832727" y="275.328" style="stroke: #000000"/>
     <use xlink:href="#m0e6d0145f3" x="73.832727" y="273.888" style="stroke: #000000"/>
     <use xlink:href="#m0e6d0145f3" x="73.832727" y="273.888" style="stroke: #000000"/>
     <use xlink:href="#m0e6d0145f3" x="73.832727" y="272.448" style="stroke: #000000"/>
     <use xlink:href="#m0e6d0145f3" x="73.832727" y="272.448" style="stroke: #000000"/>
     <use xlink:href="#m0e6d0145f3" x="73.832727" y="271.008" style="stroke: #000000"/>
     <use xlink:href="#m0e6d0145f3" x="73.832727" y="271.008" style="stroke: #000000"/>
     <use xlink:href="#m0e6d0145f3" x="73.832727" y="269.568" style="stroke: #000000"/>
     <use xlink:href="#m0e6d0145f3" x="73.832727" y="269.568" style="stroke: #000000"/>
     <use xlink:href="#m0e6d0145f3" x="73.832727" y="268.128" style="stroke: #000000"/>
     <use xlink:href="#m0e6d0145f3" x="73.832727" y="268.128" style="stroke: #000000"/>
     <use xlink:href="#m0e6d0145f3" x="73.832727" y="266.688" style="stroke: #000000"/>
     <use xlink:href="#m0e6d0145f3" x="73.832727" y="266.688" style="stroke: #000000"/>
     <use xlink:href="#m0e6d0145f3" x="73.832727" y="265.248" style="stroke: #000000"/>
     <use xlink:href="#m0e6d0145f3" x="73.832727" y="265.248" style="stroke: #000000"/>
     <use xlink:href="#m0e6d0145f3" x="73.832727" y="263.808" style="stroke: #000000"/>
     <use xlink:href="#m0e6d0145f3" x="73.832727" y="263.808" style="stroke: #000000"/>
     <use xlink:href="#m0e6d0145f3" x="73.832727" y="262.368" style="stroke: #000000"/>
     <use xlink:href="#m0e6d0145f3" x="73.832727" y="262.368" style="stroke: #000000"/>
     <use xlink:href="#m0e6d0145f3" x="73.832727" y="260.928" style="stroke: #000000"/>
     <use xlink:href="#m0e6d0145f3" x="73.832727" y="260.928" style="stroke: #000000"/>
     <use xlink:href="#m0e6d0145f3" x="73.832727" y="259.488" style="stroke: #000000"/>
     <use xlink:href="#m0e6d0145f3" x="73.832727" y="259.488" style="stroke: #000000"/>
     <use xlink:href="#m0e6d0145f3" x="73.832727" y="258.048" style="stroke: #000000"/>
     <use xlink:href="#m0e6d0145f3" x="73.832727" y="258.048" style="stroke: #000000"/>
     <use xlink:href="#m0e6d0145f3" x="73.832727" y="256.608" style="stroke: #000000"/>
     <use xlink:href="#m0e6d0145f3" x="73.832727" y="256.608" style="stroke: #000000"/>
     <use xlink:href="#m0e6d0145f3" x="73.832727" y="255.168" style="stroke: #000000"/>
     <use xlink:href="#m0e6d0145f3" x="73.832727" y="255.168" style="stroke: #000000"/>
     <use xlink:href="#m0e6d0145f3" x="73.832727" y="253.728" style="stroke: #000000"/>
     <use xlink:href="#m0e6d0145f3" x="73.832727" y="253.728" style="stroke: #000000"/>
     <use xlink:href="#m0e6d0145f3" x="73.832727" y="252.288" style="stroke: #000000"/>
     <use xlink:href="#m0e6d0145f3" x="73.832727" y="252.288" style="stroke: #000000"/>
     <use xlink:href="#m0e6d0145f3" x="73.832727" y="250.848" style="stroke: #000000"/>
     <use xlink:href="#m0e6d0145f3" x="73.832727" y="250.848" style="stroke: #000000"/>
     <use xlink:href="#m0e6d0145f3" x="73.832727" y="249.408" style="stroke: #000000"/>
     <use xlink:href="#m0e6d0145f3" x="73.832727" y="249.408" style="stroke: #000000"/>
     <use xlink:href="#m0e6d0145f3" x="73.832727" y="247.968" style="stroke: #000000"/>
     <use xlink:href="#m0e6d0145f3" x="73.832727" y="247.968" style="stroke: #000000"/>
     <use xlink:href="#m0e6d0145f3" x="73.832727" y="246.528" style="stroke: #000000"/>
     <use xlink:href="#m0e6d0145f3" x="73.832727" y="246.528" style="stroke: #000000"/>
     <use xlink:href="#m0e6d0145f3" x="73.832727" y="245.088" style="stroke: #000000"/>
     <use xlink:href="#m0e6d0145f3" x="73.832727" y="245.088" style="stroke: #000000"/>
     <use xlink:href="#m0e6d0145f3" x="73.832727" y="243.648" style="stroke: #000000"/>
     <use xlink:href="#m0e6d0145f3" x="73.832727" y="243.648" style="stroke: #000000"/>
     <use xlink:href="#m0e6d0145f3" x="73.832727" y="242.208" style="stroke: #000000"/>
     <use xlink:href="#m0e6d0145f3" x="73.832727" y="242.208" style="stroke: #000000"/>
     <use xlink:href="#m0e6d0145f3" x="73.832727" y="240.768" style="stroke: #000000"/>
     <use xlink:href="#m0e6d0145f3" x="73.832727" y="240.768" style="stroke: #000000"/>
     <use xlink:href="#m0e6d0145f3" x="73.832727" y="239.328" style="stroke: #000000"/>
     <use xlink:href="#m0e6d0145f3" x="73.832727" y="239.328" style="stroke: #000000"/>
     <use xlink:href="#m0e6d0145f3" x="73.832727" y="237.888" style="stroke: #000000"/>
     <use xlink:href="#m0e6d0145f3" x="73.832727" y="237.888" style="stroke: #000000"/>
     <use xlink:href="#m0e6d0145f3" x="73.832727" y="236.448" style="stroke: #000000"/>
     <use xlink:href="#m0e6d0145f3" x="73.832727" y="236.448" style="stroke: #000000"/>
     <use xlink:href="#m0e6d0145f3" x="73.832727" y="235.008" style="stroke: #000000"/>
     <use xlink:href="#m0e6d0145f3" x="73.832727" y="235.008" style="stroke: #000000"/>
     <use xlink:href="#m0e6d0145f3" x="73.832727" y="233.568" style="stroke: #000000"/>
     <use xlink:href="#m0e6d0145f3" x="73.832727" y="233.568" style="stroke: #000000"/>
     <use xlink:href="#m0e6d0145f3" x="73.832727" y="232.128" style="stroke: #000000"/>
     <use xlink:href="#m0e6d0145f3" x="73.832727" y="232.128" style="stroke: #000000"/>
     <use xlink:href="#m0e6d0145f3" x="73.832727" y="230.688" style="stroke: #000000"/>
     <use xlink:href="#m0e6d0145f3" x="73.832727" y="230.688" style="stroke: #000000"/>
     <use xlink:href="#m0e6d0145f3" x="73.832727" y="229.248" style="stroke: #000000"/>
     <use xlink:href="#m0e6d0145f3" x="73.832727" y="229.248" style="stroke: #000000"/>
     <use xlink:href="#m0e6d0145f3" x="73.832727" y="227.808" style="stroke: #000000"/>
     <use xlink:href="#m0e6d0145f3" x="73.832727" y="227.808" style="stroke: #000000"/>
     <use xlink:href="#m0e6d0145f3" x="73.832727" y="226.368" style="stroke: #000000"/>
     <use xlink:href="#m0e6d0145f3" x="73.832727" y="226.368" style="stroke: #000000"/>
     <use xlink:href="#m0e6d0145f3" x="73.832727" y="224.928" style="stroke: #000000"/>
     <use xlink:href="#m0e6d0145f3" x="73.832727" y="224.928" style="stroke: #000000"/>
     <use xlink:href="#m0e6d0145f3" x="73.832727" y="223.488" style="stroke: #000000"/>
     <use xlink:href="#m0e6d0145f3" x="73.832727" y="223.488" style="stroke: #000000"/>
     <use xlink:href="#m0e6d0145f3" x="73.832727" y="222.048" style="stroke: #000000"/>
     <use xlink:href="#m0e6d0145f3" x="73.832727" y="222.048" style="stroke: #000000"/>
     <use xlink:href="#m0e6d0145f3" x="73.832727" y="220.608" style="stroke: #000000"/>
     <use xlink:href="#m0e6d0145f3" x="73.832727" y="220.608" style="stroke: #000000"/>
     <use xlink:href="#m0e6d0145f3" x="73.832727" y="219.168" style="stroke: #000000"/>
     <use xlink:href="#m0e6d0145f3" x="73.832727" y="219.168" style="stroke: #000000"/>
     <use xlink:href="#m0e6d0145f3" x="73.832727" y="217.728" style="stroke: #000000"/>
     <use xlink:href="#m0e6d0145f3" x="73.832727" y="217.728" style="stroke: #000000"/>
     <use xlink:href="#m0e6d0145f3" x="73.832727" y="216.288" style="stroke: #000000"/>
     <use xlink:href="#m0e6d0145f3" x="73.832727" y="216.288" style="stroke: #000000"/>
     <use xlink:href="#m0e6d0145f3" x="73.832727" y="214.848" style="stroke: #000000"/>
     <use xlink:href="#m0e6d0145f3" x="73.832727" y="214.848" style="stroke: #000000"/>
     <use xlink:href="#m0e6d0145f3" x="73.832727" y="213.408" style="stroke: #000000"/>
     <use xlink:href="#m0e6d0145f3" x="73.832727" y="213.408" style="stroke: #000000"/>
     <use xlink:href="#m0e6d0145f3" x="73.832727" y="211.968" style="stroke: #000000"/>
     <use xlink:href="#m0e6d0145f3" x="73.832727" y="211.968" style="stroke: #000000"/>
     <use xlink:href="#m0e6d0145f3" x="73.832727" y="210.528" style="stroke: #000000"/>
     <use xlink:href="#m0e6d0145f3" x="73.832727" y="210.528" style="stroke: #000000"/>
     <use xlink:href="#m0e6d0145f3" x="73.832727" y="209.088" style="stroke: #000000"/>
     <use xlink:href="#m0e6d0145f3" x="73.832727" y="209.088" style="stroke: #000000"/>
     <use xlink:href="#m0e6d0145f3" x="73.832727" y="207.648" style="stroke: #000000"/>
     <use xlink:href="#m0e6d0145f3" x="73.832727" y="207.648" style="stroke: #000000"/>
     <use xlink:href="#m0e6d0145f3" x="73.832727" y="206.208" style="stroke: #000000"/>
     <use xlink:href="#m0e6d0145f3" x="73.832727" y="206.208" style="stroke: #000000"/>
     <use xlink:href="#m0e6d0145f3" x="73.832727" y="204.768" style="stroke: #000000"/>
     <use xlink:href="#m0e6d0145f3" x="73.832727" y="204.768" style="stroke: #000000"/>
     <use xlink:href="#m0e6d0145f3" x="73.832727" y="203.328" style="stroke: #000000"/>
     <use xlink:href="#m0e6d0145f3" x="73.832727" y="203.328" style="stroke: #000000"/>
     <use xlink:href="#m0e6d0145f3" x="73.832727" y="201.888" style="stroke: #000000"/>
     <use xlink:href="#m0e6d0145f3" x="73.832727" y="201.888" style="stroke: #000000"/>
     <use xlink:href="#m0e6d0145f3" x="73.832727" y="200.448" style="stroke: #000000"/>
     <use xlink:href="#m0e6d0145f3" x="73.832727" y="200.448" style="stroke: #000000"/>
     <use xlink:href="#m0e6d0145f3" x="73.832727" y="199.008" style="stroke: #000000"/>
     <use xlink:href="#m0e6d0145f3" x="73.832727" y="199.008" style="stroke: #000000"/>
     <use xlink:href="#m0e6d0145f3" x="73.832727" y="196.128" style="stroke: #000000"/>
     <use xlink:href="#m0e6d0145f3" x="73.832727" y="196.128" style="stroke: #000000"/>
     <use xlink:href="#m0e6d0145f3" x="73.832727" y="196.128" style="stroke: #000000"/>
     <use xlink:href="#m0e6d0145f3" x="73.832727" y="194.688" style="stroke: #000000"/>
     <use xlink:href="#m0e6d0145f3" x="73.832727" y="194.688" style="stroke: #000000"/>
     <use xlink:href="#m0e6d0145f3" x="73.832727" y="193.248" style="stroke: #000000"/>
     <use xlink:href="#m0e6d0145f3" x="73.832727" y="193.248" style="stroke: #000000"/>
     <use xlink:href="#m0e6d0145f3" x="73.832727" y="193.248" style="stroke: #000000"/>
     <use xlink:href="#m0e6d0145f3" x="73.832727" y="193.248" style="stroke: #000000"/>
     <use xlink:href="#m0e6d0145f3" x="73.832727" y="193.248" style="stroke: #000000"/>
     <use xlink:href="#m0e6d0145f3" x="73.832727" y="193.248" style="stroke: #000000"/>
     <use xlink:href="#m0e6d0145f3" x="73.832727" y="190.368" style="stroke: #000000"/>
     <use xlink:href="#m0e6d0145f3" x="73.832727" y="190.368" style="stroke: #000000"/>
     <use xlink:href="#m0e6d0145f3" x="73.832727" y="186.048" style="stroke: #000000"/>
     <use xlink:href="#m0e6d0145f3" x="73.832727" y="186.048" style="stroke: #000000"/>
     <use xlink:href="#m0e6d0145f3" x="73.832727" y="186.048" style="stroke: #000000"/>
     <use xlink:href="#m0e6d0145f3" x="73.832727" y="186.048" style="stroke: #000000"/>
     <use xlink:href="#m0e6d0145f3" x="73.832727" y="186.048" style="stroke: #000000"/>
     <use xlink:href="#m0e6d0145f3" x="73.832727" y="186.048" style="stroke: #000000"/>
     <use xlink:href="#m0e6d0145f3" x="73.832727" y="186.048" style="stroke: #000000"/>
     <use xlink:href="#m0e6d0145f3" x="73.832727" y="186.048" style="stroke: #000000"/>
     <use xlink:href="#m0e6d0145f3" x="73.832727" y="186.048" style="stroke: #000000"/>
     <use xlink:href="#m0e6d0145f3" x="73.832727" y="184.608" style="stroke: #000000"/>
     <use xlink:href="#m0e6d0145f3" x="73.832727" y="184.608" style="stroke: #000000"/>
     <use xlink:href="#m0e6d0145f3" x="73.832727" y="184.608" style="stroke: #000000"/>
     <use xlink:href="#m0e6d0145f3" x="73.832727" y="183.168" style="stroke: #000000"/>
     <use xlink:href="#m0e6d0145f3" x="73.832727" y="178.848" style="stroke: #000000"/>
     <use xlink:href="#m0e6d0145f3" x="73.832727" y="178.848" style="stroke: #000000"/>
     <use xlink:href="#m0e6d0145f3" x="73.832727" y="177.408" style="stroke: #000000"/>
     <use xlink:href="#m0e6d0145f3" x="73.832727" y="177.408" style="stroke: #000000"/>
     <use xlink:href="#m0e6d0145f3" x="73.832727" y="174.528" style="stroke: #000000"/>
     <use xlink:href="#m0e6d0145f3" x="73.832727" y="174.528" style="stroke: #000000"/>
     <use xlink:href="#m0e6d0145f3" x="73.832727" y="171.648" style="stroke: #000000"/>
     <use xlink:href="#m0e6d0145f3" x="73.832727" y="171.648" style="stroke: #000000"/>
     <use xlink:href="#m0e6d0145f3" x="73.832727" y="170.208" style="stroke: #000000"/>
     <use xlink:href="#m0e6d0145f3" x="73.832727" y="170.208" style="stroke: #000000"/>
     <use xlink:href="#m0e6d0145f3" x="73.832727" y="168.768" style="stroke: #000000"/>
     <use xlink:href="#m0e6d0145f3" x="73.832727" y="168.768" style="stroke: #000000"/>
     <use xlink:href="#m0e6d0145f3" x="73.832727" y="167.328" style="stroke: #000000"/>
     <use xlink:href="#m0e6d0145f3" x="73.832727" y="165.888" style="stroke: #000000"/>
     <use xlink:href="#m0e6d0145f3" x="73.832727" y="165.888" style="stroke: #000000"/>
     <use xlink:href="#m0e6d0145f3" x="73.832727" y="164.448" style="stroke: #000000"/>
     <use xlink:href="#m0e6d0145f3" x="73.832727" y="164.448" style="stroke: #000000"/>
     <use xlink:href="#m0e6d0145f3" x="73.832727" y="163.008" style="stroke: #000000"/>
     <use xlink:href="#m0e6d0145f3" x="73.832727" y="161.568" style="stroke: #000000"/>
     <use xlink:href="#m0e6d0145f3" x="73.832727" y="161.568" style="stroke: #000000"/>
     <use xlink:href="#m0e6d0145f3" x="73.832727" y="160.128" style="stroke: #000000"/>
     <use xlink:href="#m0e6d0145f3" x="73.832727" y="158.688" style="stroke: #000000"/>
     <use xlink:href="#m0e6d0145f3" x="73.832727" y="158.688" style="stroke: #000000"/>
     <use xlink:href="#m0e6d0145f3" x="73.832727" y="157.248" style="stroke: #000000"/>
     <use xlink:href="#m0e6d0145f3" x="73.832727" y="157.248" style="stroke: #000000"/>
     <use xlink:href="#m0e6d0145f3" x="73.832727" y="155.808" style="stroke: #000000"/>
     <use xlink:href="#m0e6d0145f3" x="73.832727" y="155.808" style="stroke: #000000"/>
     <use xlink:href="#m0e6d0145f3" x="73.832727" y="152.928" style="stroke: #000000"/>
     <use xlink:href="#m0e6d0145f3" x="73.832727" y="152.928" style="stroke: #000000"/>
     <use xlink:href="#m0e6d0145f3" x="73.832727" y="151.488" style="stroke: #000000"/>
     <use xlink:href="#m0e6d0145f3" x="73.832727" y="151.488" style="stroke: #000000"/>
     <use xlink:href="#m0e6d0145f3" x="73.832727" y="151.488" style="stroke: #000000"/>
     <use xlink:href="#m0e6d0145f3" x="73.832727" y="151.488" style="stroke: #000000"/>
     <use xlink:href="#m0e6d0145f3" x="73.832727" y="151.488" style="stroke: #000000"/>
     <use xlink:href="#m0e6d0145f3" x="73.832727" y="151.488" style="stroke: #000000"/>
     <use xlink:href="#m0e6d0145f3" x="73.832727" y="151.488" style="stroke: #000000"/>
     <use xlink:href="#m0e6d0145f3" x="73.832727" y="151.488" style="stroke: #000000"/>
     <use xlink:href="#m0e6d0145f3" x="73.832727" y="151.488" style="stroke: #000000"/>
     <use xlink:href="#m0e6d0145f3" x="73.832727" y="151.488" style="stroke: #000000"/>
     <use xlink:href="#m0e6d0145f3" x="73.832727" y="151.488" style="stroke: #000000"/>
     <use xlink:href="#m0e6d0145f3" x="73.832727" y="151.488" style="stroke: #000000"/>
     <use xlink:href="#m0e6d0145f3" x="73.832727" y="151.488" style="stroke: #000000"/>
     <use xlink:href="#m0e6d0145f3" x="73.832727" y="151.488" style="stroke: #000000"/>
     <use xlink:href="#m0e6d0145f3" x="398.487273" y="147.168" style="stroke: #000000"/>
     <use xlink:href="#m0e6d0145f3" x="398.487273" y="147.168" style="stroke: #000000"/>
     <use xlink:href="#m0e6d0145f3" x="398.487273" y="144.288" style="stroke: #000000"/>
     <use xlink:href="#m0e6d0145f3" x="398.487273" y="144.288" style="stroke: #000000"/>
     <use xlink:href="#m0e6d0145f3" x="398.487273" y="141.408" style="stroke: #000000"/>
     <use xlink:href="#m0e6d0145f3" x="398.487273" y="141.408" style="stroke: #000000"/>
     <use xlink:href="#m0e6d0145f3" x="398.487273" y="138.528" style="stroke: #000000"/>
     <use xlink:href="#m0e6d0145f3" x="398.487273" y="138.528" style="stroke: #000000"/>
     <use xlink:href="#m0e6d0145f3" x="398.487273" y="137.088" style="stroke: #000000"/>
     <use xlink:href="#m0e6d0145f3" x="398.487273" y="137.088" style="stroke: #000000"/>
     <use xlink:href="#m0e6d0145f3" x="398.487273" y="134.208" style="stroke: #000000"/>
     <use xlink:href="#m0e6d0145f3" x="398.487273" y="134.208" style="stroke: #000000"/>
     <use xlink:href="#m0e6d0145f3" x="398.487273" y="131.328" style="stroke: #000000"/>
     <use xlink:href="#m0e6d0145f3" x="398.487273" y="131.328" style="stroke: #000000"/>
     <use xlink:href="#m0e6d0145f3" x="398.487273" y="129.888" style="stroke: #000000"/>
     <use xlink:href="#m0e6d0145f3" x="398.487273" y="129.888" style="stroke: #000000"/>
     <use xlink:href="#m0e6d0145f3" x="398.487273" y="127.008" style="stroke: #000000"/>
     <use xlink:href="#m0e6d0145f3" x="398.487273" y="127.008" style="stroke: #000000"/>
     <use xlink:href="#m0e6d0145f3" x="398.487273" y="124.128" style="stroke: #000000"/>
     <use xlink:href="#m0e6d0145f3" x="398.487273" y="124.128" style="stroke: #000000"/>
     <use xlink:href="#m0e6d0145f3" x="398.487273" y="121.248" style="stroke: #000000"/>
     <use xlink:href="#m0e6d0145f3" x="398.487273" y="121.248" style="stroke: #000000"/>
     <use xlink:href="#m0e6d0145f3" x="398.487273" y="118.368" style="stroke: #000000"/>
     <use xlink:href="#m0e6d0145f3" x="398.487273" y="118.368" style="stroke: #000000"/>
     <use xlink:href="#m0e6d0145f3" x="398.487273" y="116.928" style="stroke: #000000"/>
     <use xlink:href="#m0e6d0145f3" x="398.487273" y="116.928" style="stroke: #000000"/>
     <use xlink:href="#m0e6d0145f3" x="398.487273" y="114.048" style="stroke: #000000"/>
     <use xlink:href="#m0e6d0145f3" x="398.487273" y="114.048" style="stroke: #000000"/>
     <use xlink:href="#m0e6d0145f3" x="398.487273" y="111.168" style="stroke: #000000"/>
     <use xlink:href="#m0e6d0145f3" x="398.487273" y="111.168" style="stroke: #000000"/>
     <use xlink:href="#m0e6d0145f3" x="398.487273" y="108.288" style="stroke: #000000"/>
     <use xlink:href="#m0e6d0145f3" x="398.487273" y="108.288" style="stroke: #000000"/>
     <use xlink:href="#m0e6d0145f3" x="398.487273" y="106.848" style="stroke: #000000"/>
     <use xlink:href="#m0e6d0145f3" x="398.487273" y="106.848" style="stroke: #000000"/>
     <use xlink:href="#m0e6d0145f3" x="398.487273" y="103.968" style="stroke: #000000"/>
     <use xlink:href="#m0e6d0145f3" x="398.487273" y="103.968" style="stroke: #000000"/>
     <use xlink:href="#m0e6d0145f3" x="398.487273" y="101.088" style="stroke: #000000"/>
     <use xlink:href="#m0e6d0145f3" x="398.487273" y="101.088" style="stroke: #000000"/>
     <use xlink:href="#m0e6d0145f3" x="398.487273" y="98.208" style="stroke: #000000"/>
     <use xlink:href="#m0e6d0145f3" x="398.487273" y="98.208" style="stroke: #000000"/>
     <use xlink:href="#m0e6d0145f3" x="398.487273" y="96.768" style="stroke: #000000"/>
     <use xlink:href="#m0e6d0145f3" x="398.487273" y="96.768" style="stroke: #000000"/>
     <use xlink:href="#m0e6d0145f3" x="398.487273" y="93.888" style="stroke: #000000"/>
     <use xlink:href="#m0e6d0145f3" x="398.487273" y="93.888" style="stroke: #000000"/>
     <use xlink:href="#m0e6d0145f3" x="398.487273" y="72.288" style="stroke: #000000"/>
     <use xlink:href="#m0e6d0145f3" x="398.487273" y="91.008" style="stroke: #000000"/>
     <use xlink:href="#m0e6d0145f3" x="398.487273" y="91.008" style="stroke: #000000"/>
     <use xlink:href="#m0e6d0145f3" x="398.487273" y="88.128" style="stroke: #000000"/>
     <use xlink:href="#m0e6d0145f3" x="398.487273" y="88.128" style="stroke: #000000"/>
     <use xlink:href="#m0e6d0145f3" x="398.487273" y="85.248" style="stroke: #000000"/>
     <use xlink:href="#m0e6d0145f3" x="398.487273" y="85.248" style="stroke: #000000"/>
     <use xlink:href="#m0e6d0145f3" x="398.487273" y="82.368" style="stroke: #000000"/>
     <use xlink:href="#m0e6d0145f3" x="398.487273" y="82.368" style="stroke: #000000"/>
     <use xlink:href="#m0e6d0145f3" x="398.487273" y="79.488" style="stroke: #000000"/>
     <use xlink:href="#m0e6d0145f3" x="398.487273" y="79.488" style="stroke: #000000"/>
     <use xlink:href="#m0e6d0145f3" x="398.487273" y="78.048" style="stroke: #000000"/>
     <use xlink:href="#m0e6d0145f3" x="398.487273" y="78.048" style="stroke: #000000"/>
     <use xlink:href="#m0e6d0145f3" x="398.487273" y="75.168" style="stroke: #000000"/>
     <use xlink:href="#m0e6d0145f3" x="398.487273" y="75.168" style="stroke: #000000"/>
     <use xlink:href="#m0e6d0145f3" x="398.487273" y="72.288" style="stroke: #000000"/>
     <use xlink:href="#m0e6d0145f3" x="398.487273" y="69.408" style="stroke: #000000"/>
     <use xlink:href="#m0e6d0145f3" x="398.487273" y="69.408" style="stroke: #000000"/>
     <use xlink:href="#m0e6d0145f3" x="398.487273" y="66.528" style="stroke: #000000"/>
     <use xlink:href="#m0e6d0145f3" x="398.487273" y="66.528" style="stroke: #000000"/>
     <use xlink:href="#m0e6d0145f3" x="398.487273" y="63.648" style="stroke: #000000"/>
     <use xlink:href="#m0e6d0145f3" x="398.487273" y="63.648" style="stroke: #000000"/>
     <use xlink:href="#m0e6d0145f3" x="398.487273" y="60.768" style="stroke: #000000"/>
     <use xlink:href="#m0e6d0145f3" x="398.487273" y="60.768" style="stroke: #000000"/>
     <use xlink:href="#m0e6d0145f3" x="398.487273" y="59.328" style="stroke: #000000"/>
     <use xlink:href="#m0e6d0145f3" x="398.487273" y="59.328" style="stroke: #000000"/>
     <use xlink:href="#m0e6d0145f3" x="398.487273" y="56.448" style="stroke: #000000"/>
     <use xlink:href="#m0e6d0145f3" x="398.487273" y="56.448" style="stroke: #000000"/>
     <use xlink:href="#m0e6d0145f3" x="398.487273" y="53.568" style="stroke: #000000"/>
     <use xlink:href="#m0e6d0145f3" x="398.487273" y="53.568" style="stroke: #000000"/>
    </g>
   </g>
   <g id="matplotlib.axis_1">
    <g id="xtick_1">
     <g id="line2d_1">
      <defs>
       <path id="mc8de3f4472" d="M 0 0 
L 0 3.5 
" style="stroke: #000000; stroke-width: 0.8"/>
      </defs>
      <g>
       <use xlink:href="#mc8de3f4472" x="73.832727" y="307.584" style="stroke: #000000; stroke-width: 0.8"/>
      </g>
     </g>
     <g id="text_1">
      <!-- OF -->
      <g transform="translate(67.021009 322.182437) scale(0.1 -0.1)">
       <defs>
        <path id="DejaVuSans-4f" d="M 2522 4238 
Q 1834 4238 1429 3725 
Q 1025 3213 1025 2328 
Q 1025 1447 1429 934 
Q 1834 422 2522 422 
Q 3209 422 3611 934 
Q 4013 1447 4013 2328 
Q 4013 3213 3611 3725 
Q 3209 4238 2522 4238 
z
M 2522 4750 
Q 3503 4750 4090 4092 
Q 4678 3434 4678 2328 
Q 4678 1225 4090 567 
Q 3503 -91 2522 -91 
Q 1538 -91 948 565 
Q 359 1222 359 2328 
Q 359 3434 948 4092 
Q 1538 4750 2522 4750 
z
" transform="scale(0.015625)"/>
        <path id="DejaVuSans-46" d="M 628 4666 
L 3309 4666 
L 3309 4134 
L 1259 4134 
L 1259 2759 
L 3109 2759 
L 3109 2228 
L 1259 2228 
L 1259 0 
L 628 0 
L 628 4666 
z
" transform="scale(0.015625)"/>
       </defs>
       <use xlink:href="#DejaVuSans-4f"/>
       <use xlink:href="#DejaVuSans-46" x="78.710938"/>
      </g>
     </g>
    </g>
    <g id="xtick_2">
     <g id="line2d_2">
      <g>
       <use xlink:href="#mc8de3f4472" x="398.487273" y="307.584" style="stroke: #000000; stroke-width: 0.8"/>
      </g>
     </g>
     <g id="text_2">
      <!-- MS -->
      <g transform="translate(390.998991 322.182437) scale(0.1 -0.1)">
       <defs>
        <path id="DejaVuSans-4d" d="M 628 4666 
L 1569 4666 
L 2759 1491 
L 3956 4666 
L 4897 4666 
L 4897 0 
L 4281 0 
L 4281 4097 
L 3078 897 
L 2444 897 
L 1241 4097 
L 1241 0 
L 628 0 
L 628 4666 
z
" transform="scale(0.015625)"/>
        <path id="DejaVuSans-53" d="M 3425 4513 
L 3425 3897 
Q 3066 4069 2747 4153 
Q 2428 4238 2131 4238 
Q 1616 4238 1336 4038 
Q 1056 3838 1056 3469 
Q 1056 3159 1242 3001 
Q 1428 2844 1947 2747 
L 2328 2669 
Q 3034 2534 3370 2195 
Q 3706 1856 3706 1288 
Q 3706 609 3251 259 
Q 2797 -91 1919 -91 
Q 1588 -91 1214 -16 
Q 841 59 441 206 
L 441 856 
Q 825 641 1194 531 
Q 1563 422 1919 422 
Q 2459 422 2753 634 
Q 3047 847 3047 1241 
Q 3047 1584 2836 1778 
Q 2625 1972 2144 2069 
L 1759 2144 
Q 1053 2284 737 2584 
Q 422 2884 422 3419 
Q 422 4038 858 4394 
Q 1294 4750 2059 4750 
Q 2388 4750 2728 4690 
Q 3069 4631 3425 4513 
z
" transform="scale(0.015625)"/>
       </defs>
       <use xlink:href="#DejaVuSans-4d"/>
       <use xlink:href="#DejaVuSans-53" x="86.279297"/>
      </g>
     </g>
    </g>
    <g id="text_3">
     <!-- Contest Type -->
     <g transform="translate(206.788125 335.541812) scale(0.1 -0.1)">
      <defs>
       <path id="ArialMT-43" d="M 3763 1606 
L 4369 1453 
Q 4178 706 3683 314 
Q 3188 -78 2472 -78 
Q 1731 -78 1267 223 
Q 803 525 561 1097 
Q 319 1669 319 2325 
Q 319 3041 592 3573 
Q 866 4106 1370 4382 
Q 1875 4659 2481 4659 
Q 3169 4659 3637 4309 
Q 4106 3959 4291 3325 
L 3694 3184 
Q 3534 3684 3231 3912 
Q 2928 4141 2469 4141 
Q 1941 4141 1586 3887 
Q 1231 3634 1087 3207 
Q 944 2781 944 2328 
Q 944 1744 1114 1308 
Q 1284 872 1643 656 
Q 2003 441 2422 441 
Q 2931 441 3284 734 
Q 3638 1028 3763 1606 
z
" transform="scale(0.015625)"/>
       <path id="ArialMT-6f" d="M 213 1659 
Q 213 2581 725 3025 
Q 1153 3394 1769 3394 
Q 2453 3394 2887 2945 
Q 3322 2497 3322 1706 
Q 3322 1066 3130 698 
Q 2938 331 2570 128 
Q 2203 -75 1769 -75 
Q 1072 -75 642 372 
Q 213 819 213 1659 
z
M 791 1659 
Q 791 1022 1069 705 
Q 1347 388 1769 388 
Q 2188 388 2466 706 
Q 2744 1025 2744 1678 
Q 2744 2294 2464 2611 
Q 2184 2928 1769 2928 
Q 1347 2928 1069 2612 
Q 791 2297 791 1659 
z
" transform="scale(0.015625)"/>
       <path id="ArialMT-6e" d="M 422 0 
L 422 3319 
L 928 3319 
L 928 2847 
Q 1294 3394 1984 3394 
Q 2284 3394 2536 3286 
Q 2788 3178 2913 3003 
Q 3038 2828 3088 2588 
Q 3119 2431 3119 2041 
L 3119 0 
L 2556 0 
L 2556 2019 
Q 2556 2363 2490 2533 
Q 2425 2703 2258 2804 
Q 2091 2906 1866 2906 
Q 1506 2906 1245 2678 
Q 984 2450 984 1813 
L 984 0 
L 422 0 
z
" transform="scale(0.015625)"/>
       <path id="ArialMT-74" d="M 1650 503 
L 1731 6 
Q 1494 -44 1306 -44 
Q 1000 -44 831 53 
Q 663 150 594 308 
Q 525 466 525 972 
L 525 2881 
L 113 2881 
L 113 3319 
L 525 3319 
L 525 4141 
L 1084 4478 
L 1084 3319 
L 1650 3319 
L 1650 2881 
L 1084 2881 
L 1084 941 
Q 1084 700 1114 631 
Q 1144 563 1211 522 
Q 1278 481 1403 481 
Q 1497 481 1650 503 
z
" transform="scale(0.015625)"/>
       <path id="ArialMT-65" d="M 2694 1069 
L 3275 997 
Q 3138 488 2766 206 
Q 2394 -75 1816 -75 
Q 1088 -75 661 373 
Q 234 822 234 1631 
Q 234 2469 665 2931 
Q 1097 3394 1784 3394 
Q 2450 3394 2872 2941 
Q 3294 2488 3294 1666 
Q 3294 1616 3291 1516 
L 816 1516 
Q 847 969 1125 678 
Q 1403 388 1819 388 
Q 2128 388 2347 550 
Q 2566 713 2694 1069 
z
M 847 1978 
L 2700 1978 
Q 2663 2397 2488 2606 
Q 2219 2931 1791 2931 
Q 1403 2931 1139 2672 
Q 875 2413 847 1978 
z
" transform="scale(0.015625)"/>
       <path id="ArialMT-73" d="M 197 991 
L 753 1078 
Q 800 744 1014 566 
Q 1228 388 1613 388 
Q 2000 388 2187 545 
Q 2375 703 2375 916 
Q 2375 1106 2209 1216 
Q 2094 1291 1634 1406 
Q 1016 1563 777 1677 
Q 538 1791 414 1992 
Q 291 2194 291 2438 
Q 291 2659 392 2848 
Q 494 3038 669 3163 
Q 800 3259 1026 3326 
Q 1253 3394 1513 3394 
Q 1903 3394 2198 3281 
Q 2494 3169 2634 2976 
Q 2775 2784 2828 2463 
L 2278 2388 
Q 2241 2644 2061 2787 
Q 1881 2931 1553 2931 
Q 1166 2931 1000 2803 
Q 834 2675 834 2503 
Q 834 2394 903 2306 
Q 972 2216 1119 2156 
Q 1203 2125 1616 2013 
Q 2213 1853 2448 1751 
Q 2684 1650 2818 1456 
Q 2953 1263 2953 975 
Q 2953 694 2789 445 
Q 2625 197 2315 61 
Q 2006 -75 1616 -75 
Q 969 -75 630 194 
Q 291 463 197 991 
z
" transform="scale(0.015625)"/>
       <path id="ArialMT-20" transform="scale(0.015625)"/>
       <path id="ArialMT-54" d="M 1659 0 
L 1659 4041 
L 150 4041 
L 150 4581 
L 3781 4581 
L 3781 4041 
L 2266 4041 
L 2266 0 
L 1659 0 
z
" transform="scale(0.015625)"/>
       <path id="ArialMT-79" d="M 397 -1278 
L 334 -750 
Q 519 -800 656 -800 
Q 844 -800 956 -737 
Q 1069 -675 1141 -563 
Q 1194 -478 1313 -144 
Q 1328 -97 1363 -6 
L 103 3319 
L 709 3319 
L 1400 1397 
Q 1534 1031 1641 628 
Q 1738 1016 1872 1384 
L 2581 3319 
L 3144 3319 
L 1881 -56 
Q 1678 -603 1566 -809 
Q 1416 -1088 1222 -1217 
Q 1028 -1347 759 -1347 
Q 597 -1347 397 -1278 
z
" transform="scale(0.015625)"/>
       <path id="ArialMT-70" d="M 422 -1272 
L 422 3319 
L 934 3319 
L 934 2888 
Q 1116 3141 1344 3267 
Q 1572 3394 1897 3394 
Q 2322 3394 2647 3175 
Q 2972 2956 3137 2557 
Q 3303 2159 3303 1684 
Q 3303 1175 3120 767 
Q 2938 359 2589 142 
Q 2241 -75 1856 -75 
Q 1575 -75 1351 44 
Q 1128 163 984 344 
L 984 -1272 
L 422 -1272 
z
M 931 1641 
Q 931 1000 1190 694 
Q 1450 388 1819 388 
Q 2194 388 2461 705 
Q 2728 1022 2728 1688 
Q 2728 2322 2467 2637 
Q 2206 2953 1844 2953 
Q 1484 2953 1207 2617 
Q 931 2281 931 1641 
z
" transform="scale(0.015625)"/>
      </defs>
      <use xlink:href="#ArialMT-43"/>
      <use xlink:href="#ArialMT-6f" x="72.216797"/>
      <use xlink:href="#ArialMT-6e" x="127.832031"/>
      <use xlink:href="#ArialMT-74" x="183.447266"/>
      <use xlink:href="#ArialMT-65" x="211.230469"/>
      <use xlink:href="#ArialMT-73" x="266.845703"/>
      <use xlink:href="#ArialMT-74" x="316.845703"/>
      <use xlink:href="#ArialMT-20" x="344.628906"/>
      <use xlink:href="#ArialMT-54" x="370.662109"/>
      <use xlink:href="#ArialMT-79" x="426.246094"/>
      <use xlink:href="#ArialMT-70" x="476.246094"/>
      <use xlink:href="#ArialMT-65" x="531.861328"/>
     </g>
    </g>
   </g>
   <g id="matplotlib.axis_2">
    <g id="ytick_1">
     <g id="line2d_3">
      <defs>
       <path id="m8765f42366" d="M 0 0 
L -3.5 0 
" style="stroke: #000000; stroke-width: 0.8"/>
      </defs>
      <g>
       <use xlink:href="#m8765f42366" x="57.6" y="298.368" style="stroke: #000000; stroke-width: 0.8"/>
      </g>
     </g>
     <g id="text_4">
      <!-- 0 -->
      <g transform="translate(44.2375 302.167219) scale(0.1 -0.1)">
       <defs>
        <path id="DejaVuSans-30" d="M 2034 4250 
Q 1547 4250 1301 3770 
Q 1056 3291 1056 2328 
Q 1056 1369 1301 889 
Q 1547 409 2034 409 
Q 2525 409 2770 889 
Q 3016 1369 3016 2328 
Q 3016 3291 2770 3770 
Q 2525 4250 2034 4250 
z
M 2034 4750 
Q 2819 4750 3233 4129 
Q 3647 3509 3647 2328 
Q 3647 1150 3233 529 
Q 2819 -91 2034 -91 
Q 1250 -91 836 529 
Q 422 1150 422 2328 
Q 422 3509 836 4129 
Q 1250 4750 2034 4750 
z
" transform="scale(0.015625)"/>
       </defs>
       <use xlink:href="#DejaVuSans-30"/>
      </g>
     </g>
    </g>
    <g id="ytick_2">
     <g id="line2d_4">
      <g>
       <use xlink:href="#m8765f42366" x="57.6" y="262.368" style="stroke: #000000; stroke-width: 0.8"/>
      </g>
     </g>
     <g id="text_5">
      <!-- 25 -->
      <g transform="translate(37.875 266.167219) scale(0.1 -0.1)">
       <defs>
        <path id="DejaVuSans-32" d="M 1228 531 
L 3431 531 
L 3431 0 
L 469 0 
L 469 531 
Q 828 903 1448 1529 
Q 2069 2156 2228 2338 
Q 2531 2678 2651 2914 
Q 2772 3150 2772 3378 
Q 2772 3750 2511 3984 
Q 2250 4219 1831 4219 
Q 1534 4219 1204 4116 
Q 875 4013 500 3803 
L 500 4441 
Q 881 4594 1212 4672 
Q 1544 4750 1819 4750 
Q 2544 4750 2975 4387 
Q 3406 4025 3406 3419 
Q 3406 3131 3298 2873 
Q 3191 2616 2906 2266 
Q 2828 2175 2409 1742 
Q 1991 1309 1228 531 
z
" transform="scale(0.015625)"/>
        <path id="DejaVuSans-35" d="M 691 4666 
L 3169 4666 
L 3169 4134 
L 1269 4134 
L 1269 2991 
Q 1406 3038 1543 3061 
Q 1681 3084 1819 3084 
Q 2600 3084 3056 2656 
Q 3513 2228 3513 1497 
Q 3513 744 3044 326 
Q 2575 -91 1722 -91 
Q 1428 -91 1123 -41 
Q 819 9 494 109 
L 494 744 
Q 775 591 1075 516 
Q 1375 441 1709 441 
Q 2250 441 2565 725 
Q 2881 1009 2881 1497 
Q 2881 1984 2565 2268 
Q 2250 2553 1709 2553 
Q 1456 2553 1204 2497 
Q 953 2441 691 2322 
L 691 4666 
z
" transform="scale(0.015625)"/>
       </defs>
       <use xlink:href="#DejaVuSans-32"/>
       <use xlink:href="#DejaVuSans-35" x="63.623047"/>
      </g>
     </g>
    </g>
    <g id="ytick_3">
     <g id="line2d_5">
      <g>
       <use xlink:href="#m8765f42366" x="57.6" y="226.368" style="stroke: #000000; stroke-width: 0.8"/>
      </g>
     </g>
     <g id="text_6">
      <!-- 50 -->
      <g transform="translate(37.875 230.167219) scale(0.1 -0.1)">
       <use xlink:href="#DejaVuSans-35"/>
       <use xlink:href="#DejaVuSans-30" x="63.623047"/>
      </g>
     </g>
    </g>
    <g id="ytick_4">
     <g id="line2d_6">
      <g>
       <use xlink:href="#m8765f42366" x="57.6" y="190.368" style="stroke: #000000; stroke-width: 0.8"/>
      </g>
     </g>
     <g id="text_7">
      <!-- 75 -->
      <g transform="translate(37.875 194.167219) scale(0.1 -0.1)">
       <defs>
        <path id="DejaVuSans-37" d="M 525 4666 
L 3525 4666 
L 3525 4397 
L 1831 0 
L 1172 0 
L 2766 4134 
L 525 4134 
L 525 4666 
z
" transform="scale(0.015625)"/>
       </defs>
       <use xlink:href="#DejaVuSans-37"/>
       <use xlink:href="#DejaVuSans-35" x="63.623047"/>
      </g>
     </g>
    </g>
    <g id="ytick_5">
     <g id="line2d_7">
      <g>
       <use xlink:href="#m8765f42366" x="57.6" y="154.368" style="stroke: #000000; stroke-width: 0.8"/>
      </g>
     </g>
     <g id="text_8">
      <!-- 100 -->
      <g transform="translate(31.5125 158.167219) scale(0.1 -0.1)">
       <defs>
        <path id="DejaVuSans-31" d="M 794 531 
L 1825 531 
L 1825 4091 
L 703 3866 
L 703 4441 
L 1819 4666 
L 2450 4666 
L 2450 531 
L 3481 531 
L 3481 0 
L 794 0 
L 794 531 
z
" transform="scale(0.015625)"/>
       </defs>
       <use xlink:href="#DejaVuSans-31"/>
       <use xlink:href="#DejaVuSans-30" x="63.623047"/>
       <use xlink:href="#DejaVuSans-30" x="127.246094"/>
      </g>
     </g>
    </g>
    <g id="ytick_6">
     <g id="line2d_8">
      <g>
       <use xlink:href="#m8765f42366" x="57.6" y="118.368" style="stroke: #000000; stroke-width: 0.8"/>
      </g>
     </g>
     <g id="text_9">
      <!-- 125 -->
      <g transform="translate(31.5125 122.167219) scale(0.1 -0.1)">
       <use xlink:href="#DejaVuSans-31"/>
       <use xlink:href="#DejaVuSans-32" x="63.623047"/>
       <use xlink:href="#DejaVuSans-35" x="127.246094"/>
      </g>
     </g>
    </g>
    <g id="ytick_7">
     <g id="line2d_9">
      <g>
       <use xlink:href="#m8765f42366" x="57.6" y="82.368" style="stroke: #000000; stroke-width: 0.8"/>
      </g>
     </g>
     <g id="text_10">
      <!-- 150 -->
      <g transform="translate(31.5125 86.167219) scale(0.1 -0.1)">
       <use xlink:href="#DejaVuSans-31"/>
       <use xlink:href="#DejaVuSans-35" x="63.623047"/>
       <use xlink:href="#DejaVuSans-30" x="127.246094"/>
      </g>
     </g>
    </g>
    <g id="ytick_8">
     <g id="line2d_10">
      <g>
       <use xlink:href="#m8765f42366" x="57.6" y="46.368" style="stroke: #000000; stroke-width: 0.8"/>
      </g>
     </g>
     <g id="text_11">
      <!-- 175 -->
      <g transform="translate(31.5125 50.167219) scale(0.1 -0.1)">
       <use xlink:href="#DejaVuSans-31"/>
       <use xlink:href="#DejaVuSans-37" x="63.623047"/>
       <use xlink:href="#DejaVuSans-35" x="127.246094"/>
      </g>
     </g>
    </g>
    <g id="text_12">
     <!-- Contest Seq Nbr -->
     <g transform="translate(25.525 211.488937) rotate(-90) scale(0.1 -0.1)">
      <defs>
       <path id="ArialMT-53" d="M 288 1472 
L 859 1522 
Q 900 1178 1048 958 
Q 1197 738 1509 602 
Q 1822 466 2213 466 
Q 2559 466 2825 569 
Q 3091 672 3220 851 
Q 3350 1031 3350 1244 
Q 3350 1459 3225 1620 
Q 3100 1781 2813 1891 
Q 2628 1963 1997 2114 
Q 1366 2266 1113 2400 
Q 784 2572 623 2826 
Q 463 3081 463 3397 
Q 463 3744 659 4045 
Q 856 4347 1234 4503 
Q 1613 4659 2075 4659 
Q 2584 4659 2973 4495 
Q 3363 4331 3572 4012 
Q 3781 3694 3797 3291 
L 3216 3247 
Q 3169 3681 2898 3903 
Q 2628 4125 2100 4125 
Q 1550 4125 1298 3923 
Q 1047 3722 1047 3438 
Q 1047 3191 1225 3031 
Q 1400 2872 2139 2705 
Q 2878 2538 3153 2413 
Q 3553 2228 3743 1945 
Q 3934 1663 3934 1294 
Q 3934 928 3725 604 
Q 3516 281 3123 101 
Q 2731 -78 2241 -78 
Q 1619 -78 1198 103 
Q 778 284 539 648 
Q 300 1013 288 1472 
z
" transform="scale(0.015625)"/>
       <path id="ArialMT-71" d="M 2538 -1272 
L 2538 353 
Q 2406 169 2170 47 
Q 1934 -75 1669 -75 
Q 1078 -75 651 397 
Q 225 869 225 1691 
Q 225 2191 398 2587 
Q 572 2984 901 3189 
Q 1231 3394 1625 3394 
Q 2241 3394 2594 2875 
L 2594 3319 
L 3100 3319 
L 3100 -1272 
L 2538 -1272 
z
M 803 1669 
Q 803 1028 1072 708 
Q 1341 388 1716 388 
Q 2075 388 2334 692 
Q 2594 997 2594 1619 
Q 2594 2281 2320 2615 
Q 2047 2950 1678 2950 
Q 1313 2950 1058 2639 
Q 803 2328 803 1669 
z
" transform="scale(0.015625)"/>
       <path id="ArialMT-4e" d="M 488 0 
L 488 4581 
L 1109 4581 
L 3516 984 
L 3516 4581 
L 4097 4581 
L 4097 0 
L 3475 0 
L 1069 3600 
L 1069 0 
L 488 0 
z
" transform="scale(0.015625)"/>
       <path id="ArialMT-62" d="M 941 0 
L 419 0 
L 419 4581 
L 981 4581 
L 981 2947 
Q 1338 3394 1891 3394 
Q 2197 3394 2470 3270 
Q 2744 3147 2920 2923 
Q 3097 2700 3197 2384 
Q 3297 2069 3297 1709 
Q 3297 856 2875 390 
Q 2453 -75 1863 -75 
Q 1275 -75 941 416 
L 941 0 
z
M 934 1684 
Q 934 1088 1097 822 
Q 1363 388 1816 388 
Q 2184 388 2453 708 
Q 2722 1028 2722 1663 
Q 2722 2313 2464 2622 
Q 2206 2931 1841 2931 
Q 1472 2931 1203 2611 
Q 934 2291 934 1684 
z
" transform="scale(0.015625)"/>
       <path id="ArialMT-72" d="M 416 0 
L 416 3319 
L 922 3319 
L 922 2816 
Q 1116 3169 1280 3281 
Q 1444 3394 1641 3394 
Q 1925 3394 2219 3213 
L 2025 2691 
Q 1819 2813 1613 2813 
Q 1428 2813 1281 2702 
Q 1134 2591 1072 2394 
Q 978 2094 978 1738 
L 978 0 
L 416 0 
z
" transform="scale(0.015625)"/>
      </defs>
      <use xlink:href="#ArialMT-43"/>
      <use xlink:href="#ArialMT-6f" x="72.216797"/>
      <use xlink:href="#ArialMT-6e" x="127.832031"/>
      <use xlink:href="#ArialMT-74" x="183.447266"/>
      <use xlink:href="#ArialMT-65" x="211.230469"/>
      <use xlink:href="#ArialMT-73" x="266.845703"/>
      <use xlink:href="#ArialMT-74" x="316.845703"/>
      <use xlink:href="#ArialMT-20" x="344.628906"/>
      <use xlink:href="#ArialMT-53" x="372.412109"/>
      <use xlink:href="#ArialMT-65" x="439.111328"/>
      <use xlink:href="#ArialMT-71" x="494.726562"/>
      <use xlink:href="#ArialMT-20" x="550.341797"/>
      <use xlink:href="#ArialMT-4e" x="578.125"/>
      <use xlink:href="#ArialMT-62" x="650.341797"/>
      <use xlink:href="#ArialMT-72" x="705.957031"/>
     </g>
    </g>
   </g>
   <g id="patch_3">
    <path d="M 57.6 307.584 
L 57.6 41.472 
" style="fill: none; stroke: #000000; stroke-width: 0.8; stroke-linejoin: miter; stroke-linecap: square"/>
   </g>
   <g id="patch_4">
    <path d="M 414.72 307.584 
L 414.72 41.472 
" style="fill: none; stroke: #000000; stroke-width: 0.8; stroke-linejoin: miter; stroke-linecap: square"/>
   </g>
   <g id="patch_5">
    <path d="M 57.6 307.584 
L 414.72 307.584 
" style="fill: none; stroke: #000000; stroke-width: 0.8; stroke-linejoin: miter; stroke-linecap: square"/>
   </g>
   <g id="patch_6">
    <path d="M 57.6 41.472 
L 414.72 41.472 
" style="fill: none; stroke: #000000; stroke-width: 0.8; stroke-linejoin: miter; stroke-linecap: square"/>
   </g>
  </g>
 </g>
 <defs>
  <clipPath id="p0ede364c79">
   <rect x="57.6" y="41.472" width="357.12" height="266.112"/>
  </clipPath>
 </defs>
</svg>
